<svg xmlns="http://www.w3.org/2000/svg" viewBox="0 0 64 64" fill="none">
  <!-- Background Circle -->
  <circle cx="32" cy="32" r="30" fill="#EDF2FE" />
  
  <!-- DNS Connections (Network Lines) -->
  <g stroke="#3B82F6" stroke-width="1.5">
    <path d="M32 15 L22 25" />
    <path d="M32 15 L42 25" />
    <path d="M22 25 L15 35" />
    <path d="M22 25 L30 35" />
    <path d="M42 25 L34 35" />
    <path d="M42 25 L49 35" />
    <path d="M15 35 L18 45" />
    <path d="M15 35 L12 45" />
    <path d="M30 35 L27 45" />
    <path d="M30 35 L33 45" />
    <path d="M34 35 L37 45" />
    <path d="M34 35 L31 45" />
    <path d="M49 35 L46 45" />
    <path d="M49 35 L52 45" />
  </g>
  
  <!-- Server Node (Main) -->
  <circle cx="32" cy="15" r="3.5" fill="#3B82F6" />
  
  <!-- DNS Nodes (Secondary) -->
  <circle cx="22" cy="25" r="3" fill="#10B981" />
  <circle cx="42" cy="25" r="3" fill="#10B981" />
  
  <!-- Endpoint Nodes (Level 3) -->
  <circle cx="15" cy="35" r="2.5" fill="#6366F1" />
  <circle cx="30" cy="35" r="2.5" fill="#6366F1" />
  <circle cx="34" cy="35" r="2.5" fill="#6366F1" />
  <circle cx="49" cy="35" r="2.5" fill="#6366F1" />
  
  <!-- Terminal Nodes (Level 4) -->
  <circle cx="12" cy="45" r="2" fill="#F59E0B" />
  <circle cx="18" cy="45" r="2" fill="#F59E0B" />
  <circle cx="27" cy="45" r="2" fill="#F59E0B" />
  <circle cx="33" cy="45" r="2" fill="#F59E0B" />
  <circle cx="37" cy="45" r="2" fill="#F59E0B" />
  <circle cx="31" cy="45" r="2" fill="#F59E0B" />
  <circle cx="46" cy="45" r="2" fill="#F59E0B" />
  <circle cx="52" cy="45" r="2" fill="#F59E0B" />
  
  <!-- DNS Text - Simplified for favicon -->
  <path d="M28 52 H36" stroke="#3B82F6" stroke-width="2" stroke-linecap="round" />
</svg>